<?xml version="1.0" encoding="utf-8"?>
<!-- Generator: Adobe Illustrator 18.1.0, SVG Export Plug-In . SVG Version: 6.00 Build 0)  -->
<svg version="1.1" id="Layer_1" xmlns="http://www.w3.org/2000/svg" xmlns:xlink="http://www.w3.org/1999/xlink" x="0px" y="0px"
	 viewBox="0 0 1500 1500" enable-background="new 0 0 1500 1500" xml:space="preserve">
<g>
	<path fill="none" d="M1073.7,764.9c-0.5,25.8,14.8,141.7-117.2,172.3c-97.4,22.6-122.6,56.5-129.1,72.7
		c116.9,64.7,204.8,92.8,259.1,69.3c45.6-19.8,66.4-59.3,47.7-194.2c-8.1-58.8-4.3-111.2,14.6-149.8c-5.7-1.7-12.5-3.2-20.8-4
		C1097.2,727.8,1074.2,739.1,1073.7,764.9z M1116.9,845.1c3,85.1,42.6,203.2-60.7,221.4c-103.3,18.2-180.9-57.4-180.9-57.4
		s67.5,47.4,153.5,33.5c94.5-15.2,72.9-91.2,69.9-185.4c-3-94.2,30.7-115.1,30.7-115.1S1113.8,760,1116.9,845.1z"/>
	<path fill="#B0BF91" d="M1313.4,670.2c28.4,47.9,75.1,5.5,75.1,5.5C1340.2,630.2,1313.4,670.2,1313.4,670.2z"/>
	<path fill="#B0BF91" d="M1263.9,681.7c17.9,48.2,73.1,34.7,73.1,34.7C1305.5,669.4,1263.9,681.7,1263.9,681.7z"/>
	<path fill="#B0BF91" d="M1220.3,701.1c11.1,61.6,80.2,57.1,80.2,57.1C1272.7,695.3,1220.3,701.1,1220.3,701.1z"/>
	<path fill="#B0BF91" d="M1236.6,605.6c-46.4,24.9-38.8,64.6-38.8,64.6C1244.2,658,1236.6,605.6,1236.6,605.6z"/>
	<path fill="#B0BF91" d="M1287.3,598c-46.4,24.9-38.7,64.6-38.7,64.6C1294.8,650.4,1287.3,598,1287.3,598z"/>
	<path fill="#B0BF91" d="M1324.6,614.3c-34.6,18.6-28.9,48.1-28.9,48.1C1330.2,653.4,1324.6,614.3,1324.6,614.3z"/>
	<path fill="#CAB5E8" d="M613.8,478.3C792,550.8,883.4,625.7,906.9,699.8c0,0,11.1-107.4-194.6-203.8
		c-153.8-72-349.9-220.5-423.8-310.7c-73.8-90.2-79-124-79-124s-28.8,62.8,41,161C320.4,320.6,435.5,405.9,613.8,478.3z"/>
	<path fill="#CAB5E8" d="M717.3,605.5c0,0-32.6-49.9-165.1-115.9C419.7,423.6,321.7,364,306.5,327c0,0,0.7,83.7,83.2,133.6
		C472.3,510.5,685.2,560.4,717.3,605.5z"/>
	<path fill="#CAB5E8" d="M498,602.3c88.2,27.4,178.7,61.2,203.2,80.5c0,0-44.9-59.6-127.6-96.6c-82.8-37-164.2-61.2-177.6-82.1
		C395.9,504.1,409.8,574.9,498,602.3z"/>
	<path fill="#CAB5E8" d="M742.8,388.1c8.9-21.5,8.9-21.5,8.9-21.5s-15.7,31.9,67.1,123.7c82.8,91.8,85.3,110,99.5,154.4
		c0,0-9.3-86-77.8-175.7c-68.5-89.7-93.3-150.2-93.3-150.2s-57.6,76.2-10.9,151.3C736.3,470.2,733.9,409.6,742.8,388.1z"/>
	<path fill="#CAB5E8" d="M535.1,710.1c56.1,12.9,125.7,32.2,142.8,41.9c0,0-41.9-30.6-104.6-61.2c-62.8-30.6-92.5-22.5-105.5-54.7
		C467.7,636.1,479,697.3,535.1,710.1z"/>
	<path fill="#CAB5E8" d="M787.6,908.1c94.6-33.8,88.6-152.9,88.6-152.9s-26.8,143.3-150.6,130.4C602,872.7,515.2,735.9,515.2,735.9
		C583.6,866.3,693,941.9,787.6,908.1z"/>
	<path fill="#CAB5E8" d="M553.1,1020.8c72.9-41.9,76.6-98.2,76.6-98.2s-5.3,57.7-96.5,78.6c-91.2,20.9-128.4-28.2-128.4-28.2
		s-34.8,144.3,38.8,155.6c73.6,11.3,163.2-110.2,163.2-110.2s-74.2,72.4-127,75.6c-52.8,3.2-49.7-63.6-49.7-63.6
		S480.2,1062.6,553.1,1020.8z"/>
	<path fill="#CAB5E8" d="M810,948c1.3-1.6,2.5-3.2,3.9-4.5C813.9,943.5,812.2,945,810,948z"/>
	<path fill="#CAB5E8" d="M810,948c-7.4,9.5-13.6,24.3-17.5,42c2.7,1.6,5.2,3,7.9,4.5C797.8,969.3,805.2,954.7,810,948z"/>
	<path fill="#CAB5E8" d="M808.8,1110.9c55.2,90.2,101.5,91.9,101.5,91.9c-16.3,29-90,32.2-122-27.4c-32-59.6-37.5-143.3-37.5-143.3
		c-22.1,127.2,37.3,233.4,112.1,239.9c74.7,6.4,108.9-95.3,108.9-95.3s-64,16.5-133.1-89.8c-19.1-29.3-29.3-53.2-34.4-72.6
		c-4.7-3.3-9.5-6.6-14.3-9.9C785.2,1038.2,789.1,1078.7,808.8,1110.9z"/>
	<path fill="#CAB5E8" d="M732.5,1088.4c-37.7,132,9,186.8,9,186.8s-57.9,31.3-80.4-22.6c-16.6-39.9,36.8-186.7,36.8-186.7
		c-81.7,132.6-81.3,207.7-35.7,243.1c45.6,35.4,176.4-21.2,176.4-21.2C743.1,1279.9,732.5,1088.4,732.5,1088.4z"/>
	<path fill="#CAB5E8" d="M615.3,1207.2c16.9-69.2,79.7-168.7,79.7-168.7c-149.8,122.3-135.9,223.8-135.9,223.8
		c-44.1-6.4-74.6-82.1-74.6-82.1s23-11.3,71.4-56.3c48.4-45.1,89.5-128.8,89.5-128.8s-28.3,53.1-93.5,106.3
		c-65.3,53.1-114.1,47.1-114.1,47.1s-1.6,75.2,69.7,128.4c53,39.5,126.7,43.6,126.7,43.6S598.4,1276.5,615.3,1207.2z"/>
	<path fill="#B0BF91" d="M1171,743.8c30.2-82.4,135.4-72.9,135.4-72.9c-70.1-10.6-116.5,7.2-144.1,43
		C1168.2,721.1,1172.2,730.8,1171,743.8z"/>
	<path fill="#B0BF91" d="M1170.3,745.5c-1.8-1.5-8.4-6.5-21.4-10.4c-19,38.6-22.7,91-14.6,149.8c18.6,134.9-2.2,174.4-47.7,194.2
		c-54.2,23.5-142.2-4.6-259.1-69.3c-2.3,5.8-2.3,9.4-2.3,9.4s-0.6-4.3-0.5-10.9c-7.9-4.4-16-9.1-24.2-13.8c-2.7-1.5-5.2-3-7.9-4.5
		c-44.5-26-92.7-56.6-144.5-91.1c-228.6-152.5-390-30.4-371.4,90.6c18.6,121,152.8,190.9,152.8,190.9s-91.6-68.7-116.3-158.2
		c-38-137.5,144-230,311.5-129.9c57.2,34.2,112,74.8,165.3,112.1c4.8,3.3,9.5,6.6,14.3,9.9c97.4,67.1,190.1,119.7,283.5,96.4
		c148.9-37.2,60.5-232.6,76.8-342C1165.7,760.1,1167.8,752.6,1170.3,745.5z"/>
	<path fill="#CAB5E8" d="M825,1019.2c0,0,0-3.6,2.3-9.4c6.5-16.3,31.7-50.2,129.1-72.7c132-30.6,116.7-146.5,117.2-172.3
		c0.5-25.8,23.5-37,54.4-33.8c8.3,0.9,15.1,2.3,20.8,4c13,3.9,19.7,8.9,21.4,10.4c0.3,0.3,0.5,0.5,0.5,0.5c0.1-0.8,0.1-1.5,0.1-2.2
		c1.2-13-2.8-22.8-8.7-29.9c-11.5-13.9-29.9-18.3-29.9-18.3c0.2-29-14.9-76.3-76.2-77.9c-61.3-1.6-98.6,45.4-98.6,45.4
		c39.3-24.1,139.4-44.7,147.5,2c8.1,46.7-49.5,49.9-48.9,101.4c0.6,51.5-23.5,128.8-134.2,148.1c-86.3,15.1-96.9,70.1-97.4,93.7
		C824.4,1014.9,825,1019.2,825,1019.2z"/>
	<path fill="#B0BF91" d="M392.9,1195.7c-132.4-110.3-172.8-257-84.7-334.5c88.1-77.5,234.5-39.5,234.5-39.5
		c-132.2-57.7-285.7-10.6-306.9,126.1c-21.3,136.7,62.3,218.8,176.3,306.9c114,88.1,103.3,153.5,103.3,153.5
		S550.4,1326.9,392.9,1195.7z"/>
	<path fill="#B0BF91" d="M1098.6,857.3c3,94.2,24.6,170.2-69.9,185.4c-86,13.8-153.5-33.5-153.5-33.5s77.5,75.7,180.9,57.4
		c103.3-18.2,63.8-136.4,60.7-221.4c-3-85.1,12.5-103,12.5-103S1095.6,763,1098.6,857.3z"/>
</g>
</svg>
